<?xml version="1.0" standalone="no"?>
<!DOCTYPE svg PUBLIC "-//W3C//DTD SVG 20010904//EN"
 "http://www.w3.org/TR/2001/REC-SVG-20010904/DTD/svg10.dtd">
<svg version="1.0" xmlns="http://www.w3.org/2000/svg"
 width="284.000000pt" height="284.000000pt" viewBox="0 0 284.000000 284.000000"
 preserveAspectRatio="xMidYMid meet">
<metadata>
Created by potrace 1.11, written by Peter Selinger 2001-2013
</metadata>
<g transform="translate(0.000000,284.000000) scale(0.100000,-0.100000)"
fill="#000000" stroke="none">
<path d="M2 2807 c-1 -29 4 -36 31 -49 18 -8 47 -19 65 -23 25 -5 30 -10 22
-20 -12 -14 -55 -12 -74 4 -26 22 -46 2 -46 -45 0 -45 7 -51 40 -34 20 11 80
-5 80 -21 0 -5 5 -9 10 -9 14 0 12 27 -2 33 -10 4 -10 7 -1 18 11 11 13 10 13
-4 0 -20 16 -23 23 -4 3 7 6 5 6 -5 1 -10 4 -17 9 -16 4 0 16 -3 26 -7 13 -6
21 -4 24 4 3 8 9 4 16 -11 12 -24 37 -34 63 -24 12 5 13 9 4 20 -16 19 4 26
43 15 50 -14 55 -29 9 -29 -28 0 -43 -5 -47 -16 -8 -21 1 -34 19 -27 10 3 15
-1 15 -12 0 -9 6 -15 13 -12 6 2 10 12 9 22 -3 16 -1 17 11 6 10 -8 17 -9 22
-1 3 5 17 10 31 10 13 0 24 5 24 10 0 6 6 10 14 10 8 0 16 7 20 15 3 9 0 15
-10 15 -8 0 -13 -4 -10 -9 3 -4 -9 -5 -27 -2 -17 4 -31 10 -29 14 1 4 2 12 2
17 0 6 6 10 14 10 8 0 16 5 18 11 2 7 12 7 31 0 34 -13 36 1 2 19 -18 10 -22
16 -13 21 17 11 8 17 -32 25 -24 5 -31 4 -26 -4 5 -8 -1 -12 -17 -12 -14 0
-28 -7 -32 -17 -6 -17 -7 -17 -21 1 -12 17 -14 18 -14 3 0 -11 -8 -17 -25 -17
-14 0 -25 5 -25 11 0 6 9 8 20 4 21 -7 28 9 9 20 -5 4 -8 12 -6 18 4 12 8 13
43 16 9 0 14 7 11 14 -3 9 7 12 37 11 36 -1 107 -22 81 -23 -5 -1 3 -8 19 -16
21 -11 33 -12 40 -5 8 8 4 12 -12 16 -12 4 -22 13 -22 21 0 11 4 11 23 2 12
-6 19 -8 15 -4 -4 5 -2 15 5 23 10 13 8 14 -11 8 -13 -5 -22 -3 -22 3 0 6 8
11 18 12 13 0 14 2 2 6 -8 2 -25 10 -38 16 -16 7 -26 8 -30 1 -4 -6 -27 -11
-52 -12 -34 -1 -40 1 -25 8 15 6 16 9 4 9 -17 1 -61 -33 -59 -44 1 -4 0 -9 -3
-11 -2 -3 -4 8 -3 23 1 27 -1 28 -49 31 -47 3 -49 2 -30 -13 l20 -16 -20 5
c-11 3 -41 7 -67 8 -25 2 -44 6 -41 11 2 4 -27 7 -65 7 l-69 0 -1 -33z m65 7
c-3 -3 -12 -4 -19 -1 -8 3 -5 6 6 6 11 1 17 -2 13 -5z m118 -14 l-30 -8 28 -1
c15 0 27 -3 27 -5 0 -2 3 -12 7 -22 5 -13 2 -16 -8 -12 -39 15 -61 19 -56 12
3 -5 -8 -9 -24 -10 -16 -1 -29 3 -29 7 0 5 7 9 15 9 8 0 12 6 9 14 -6 16 14
24 61 24 l30 0 -30 -8z m80 -21 c11 -17 -1 -21 -15 -4 -8 9 -8 15 -2 15 6 0
14 -5 17 -11z m7 -52 c-11 -5 -23 -17 -25 -26 -4 -14 -5 -14 -6 1 -1 22 27 50
42 41 7 -4 3 -10 -11 -16z m-210 -31 c17 -12 15 -26 -4 -26 -5 0 -6 5 -2 11 5
9 -2 10 -22 6 -16 -3 -23 -4 -15 0 11 5 11 7 0 14 -11 7 -9 9 6 9 11 -1 28 -7
37 -14z m128 -16 c0 -5 -2 -10 -4 -10 -3 0 -8 5 -11 10 -3 6 -1 10 4 10 6 0
11 -4 11 -10z m-150 -20 c0 -5 -7 -7 -15 -4 -8 4 -15 8 -15 10 0 2 7 4 15 4 8
0 15 -4 15 -10z m70 0 c0 -5 -4 -10 -10 -10 -5 0 -10 5 -10 10 0 6 5 10 10 10
6 0 10 -4 10 -10z m237 4 c-3 -3 -12 -4 -19 -1 -8 3 -5 6 6 6 11 1 17 -2 13
-5z"/>
<path d="M556 2828 c3 -4 12 -8 20 -8 8 0 14 4 14 8 0 4 -9 8 -19 8 -11 0 -17
-4 -15 -8z"/>
<path d="M847 2802 c-23 -33 -65 -112 -89 -167 -18 -44 -50 -224 -49 -277 1
-34 -3 -58 -9 -58 -5 0 -10 8 -11 18 0 9 -7 -5 -14 -33 l-13 -50 -1 38 c0 20
-5 37 -11 37 -5 0 -10 12 -9 28 0 15 3 21 6 15 2 -7 9 -13 15 -13 10 0 8 19
-8 98 l-7 34 -18 -39 -19 -38 4 67 c4 54 2 67 -11 72 -11 5 -14 2 -9 -11 5
-13 4 -15 -3 -8 -7 7 -8 22 -1 45 12 43 12 50 1 50 -9 0 -52 -66 -55 -85 -1
-5 -7 -20 -14 -32 -7 -12 -12 -28 -12 -37 0 -8 -7 -22 -16 -31 -10 -10 -14
-24 -10 -40 5 -18 3 -24 -6 -23 -8 2 -14 -9 -16 -24 -2 -16 1 -28 7 -28 6 0
11 -4 11 -10 0 -5 -7 -10 -16 -10 -12 0 -15 -9 -12 -35 2 -24 -3 -39 -12 -45
-10 -7 -11 -10 -2 -10 6 0 12 -5 12 -11 0 -5 -6 -7 -12 -3 -7 4 -6 -1 3 -10
16 -17 15 -76 -1 -76 -5 0 -11 -13 -15 -30 -6 -26 -10 -29 -33 -25 l-27 5 25
-12 c16 -8 24 -20 22 -31 -3 -15 -10 -17 -35 -11 -17 3 -37 13 -45 20 -11 12
-8 13 19 7 l31 -6 -18 29 c-10 16 -23 33 -29 37 -6 5 -2 6 9 3 21 -7 56 23 56
49 0 10 5 14 13 10 6 -4 3 1 -7 9 -11 9 -29 17 -40 18 -12 0 -25 2 -31 3 -5 2
-17 3 -25 4 -8 0 10 18 39 38 29 21 48 39 42 41 -6 2 -18 -4 -27 -12 -29 -30
-74 -13 -51 19 11 14 16 15 22 5 5 -9 4 -11 -3 -6 -7 4 -12 2 -12 -3 0 -14 4
-14 48 4 29 13 34 18 22 25 -8 5 -22 9 -30 9 -10 0 -9 -3 4 -8 16 -6 17 -9 4
-13 -8 -4 -21 -2 -29 3 -24 15 -46 10 -53 -13 -5 -18 -8 -20 -15 -9 -5 7 -20
14 -34 14 -30 0 -45 33 -18 40 12 4 11 5 -4 6 -12 0 -27 -5 -34 -11 -11 -11
-13 -9 -8 10 5 20 2 22 -16 16 -19 -6 -20 -5 -9 9 17 21 1 30 -32 17 -29 -11
-36 -24 -8 -16 13 5 19 1 19 -11 0 -10 -5 -22 -11 -26 -6 -4 1 -5 16 -1 18 4
28 2 28 -5 0 -6 9 -11 19 -11 22 0 36 -29 21 -44 -7 -7 -10 -6 -10 3 0 9 -8
11 -24 7 -14 -3 -28 -1 -31 5 -4 6 -13 8 -21 5 -8 -3 -18 2 -21 11 -6 15 -7
15 -13 -2 -7 -20 -60 -33 -60 -15 0 6 -4 8 -10 5 -5 -3 -10 -19 -10 -36 0 -30
16 -35 35 -12 8 9 14 9 29 -2 23 -18 18 -25 -26 -34 -27 -5 -34 -12 -36 -35
-2 -16 2 -32 10 -37 10 -7 10 -9 0 -9 -8 0 -12 -18 -11 -59 1 -45 5 -58 15
-54 15 5 44 -19 44 -36 0 -6 -8 -11 -17 -11 -15 0 -16 -2 -3 -10 12 -7 10 -9
-7 -8 -12 1 -19 7 -16 15 3 7 1 13 -4 13 -5 0 -10 -22 -12 -50 -1 -27 2 -50 8
-50 5 0 11 5 13 11 4 12 58 -27 58 -42 0 -5 -9 -1 -21 9 -11 11 -29 18 -39 15
-17 -4 -19 -14 -18 -65 1 -32 5 -61 9 -64 4 -2 6 7 3 20 -5 31 5 38 46 30 21
-5 27 -9 19 -15 -10 -6 -10 -11 0 -23 8 -9 9 -16 3 -16 -5 0 -8 -9 -5 -20 3
-12 0 -20 -6 -20 -7 0 -9 5 -6 10 3 6 1 10 -5 10 -6 0 -8 5 -4 12 4 7 3 8 -4
4 -7 -4 -12 -1 -12 8 0 8 5 18 10 21 13 8 3 25 -14 25 -8 0 -12 -10 -11 -25 2
-15 -3 -29 -13 -34 -13 -7 -14 -12 -4 -24 7 -8 9 -17 5 -19 -4 -3 -3 -3 4 -2
7 2 15 -1 18 -6 4 -6 12 -10 18 -10 7 0 6 4 -3 10 -11 7 -12 10 -2 10 20 0 45
-27 30 -32 -7 -3 -3 -7 9 -10 15 -4 20 -1 19 9 -1 8 -7 18 -14 22 -7 4 -8 12
-2 21 8 13 10 13 10 -1 0 -9 7 -20 16 -23 22 -9 32 3 14 15 -10 6 1 8 36 7 52
-3 54 -6 45 -49 0 -4 -17 -6 -36 -4 -19 1 -35 -2 -35 -7 0 -4 -7 -8 -16 -8
-13 0 -14 -3 -5 -13 6 -8 8 -17 4 -20 -3 -4 4 -7 16 -7 12 0 20 -4 17 -9 -3
-5 7 -8 24 -7 16 0 29 -2 30 -6 0 -5 -2 -8 -5 -8 -3 0 -23 0 -46 0 -25 0 -38
4 -34 10 4 7 -3 8 -22 4 -34 -8 -42 -14 -20 -14 21 0 22 -16 1 -24 -8 -3 -13
-2 -10 3 3 5 -1 11 -9 15 -8 3 -15 1 -15 -4 0 -6 -7 -10 -15 -10 -20 0 -19 16
2 24 15 6 15 8 3 16 -13 8 -13 11 -1 22 11 11 13 11 6 -1 -6 -11 -3 -13 13 -9
12 3 23 1 26 -6 3 -7 5 -7 5 2 1 7 5 11 10 7 5 -3 13 0 17 6 5 8 1 10 -13 7
-16 -4 -19 -2 -16 13 4 13 0 19 -11 19 -10 0 -13 -5 -9 -17 6 -15 4 -16 -8 -6
-12 10 -18 10 -27 1 -9 -9 -12 -9 -12 0 0 7 7 15 15 18 22 9 18 21 -7 19 -15
-1 -23 -9 -25 -28 -2 -17 1 -27 9 -27 10 0 10 -2 0 -9 -22 -13 -11 -56 15 -59
13 -2 23 -8 23 -14 0 -5 -7 -7 -16 -4 -25 10 -37 -4 -17 -20 16 -12 16 -13 1
-8 -16 5 -17 -4 -16 -95 0 -97 1 -100 20 -90 30 16 51 4 38 -21 -8 -15 -8 -20
2 -20 9 0 9 -3 -2 -10 -9 -6 -10 -10 -3 -10 6 0 18 7 27 15 22 23 39 19 24 -5
-7 -11 -19 -20 -26 -20 -10 0 -10 -5 -2 -20 10 -19 10 -20 -9 -8 -12 7 -21 16
-21 20 0 5 -9 8 -19 8 -11 0 -21 8 -24 17 -2 10 -5 -260 -6 -599 l-1 -618 545
0 c300 0 545 1 545 3 0 13 -46 158 -78 244 -66 177 -134 392 -128 402 3 5 -5
34 -19 64 -13 31 -34 93 -46 139 -19 73 -20 98 -14 208 4 69 8 153 10 188 3
61 15 101 15 51 0 -35 33 -123 74 -202 20 -37 36 -76 36 -87 0 -10 5 -22 10
-25 6 -3 10 -22 10 -41 0 -19 5 -34 10 -34 6 0 10 -11 10 -25 0 -18 4 -23 15
-19 8 4 15 1 15 -6 0 -7 7 -10 15 -6 9 3 15 0 15 -7 0 -7 8 -22 18 -33 10 -11
17 -25 14 -32 -2 -6 3 -12 12 -12 10 0 16 -9 16 -25 0 -31 13 -32 29 -2 l11
22 -6 -23 c-7 -28 22 -76 41 -68 7 2 15 -4 18 -14 3 -10 24 -28 48 -40 23 -12
49 -29 57 -36 7 -8 23 -14 36 -14 12 0 27 -5 34 -12 9 -9 12 -9 12 0 0 22 45
8 57 -18 10 -22 12 -23 13 -5 1 20 1 20 15 1 8 -11 15 -14 15 -8 0 7 9 12 20
12 11 0 20 -4 20 -8 0 -10 36 -9 46 1 9 8 24 -1 24 -14 0 -6 -4 -7 -10 -4 -9
6 -14 -10 -13 -42 1 -7 -3 -10 -8 -7 -5 3 -9 0 -9 -7 0 -7 -3 -10 -6 -6 -7 7
-54 -81 -54 -101 0 -19 51 34 85 88 15 25 41 60 56 78 16 18 29 38 29 46 0 7
11 22 25 34 24 21 30 17 25 -18 -2 -16 -143 -328 -190 -420 -16 -30 -38 -79
-49 -107 l-21 -53 695 0 695 0 0 403 c0 394 0 402 -20 415 -12 7 -18 17 -14
23 4 7 10 7 18 0 9 -8 13 24 14 144 l2 155 -33 1 -32 1 30 7 30 6 1 98 1 97
-33 0 c-19 0 -34 4 -34 10 0 5 6 7 13 4 7 -2 24 0 38 5 21 9 22 10 4 11 l-20
1 20 9 c19 8 19 9 -3 9 -13 1 -21 5 -17 11 3 5 13 6 21 3 12 -4 15 -1 13 12
-2 10 -14 21 -26 26 -19 7 -23 5 -23 -11 0 -24 -25 -27 -34 -5 -6 18 12 27 53
29 l26 1 3 359 c2 256 -1 363 -9 372 -8 10 -8 14 0 14 8 0 11 72 11 250 0 160
-4 250 -10 250 -5 0 -10 -5 -10 -11 0 -5 -4 -7 -10 -4 -17 10 -11 25 10 25 18
0 20 7 20 60 0 60 0 60 -29 60 -37 0 -62 -10 -55 -21 3 -5 -2 -9 -10 -9 -9 0
-16 6 -16 13 0 10 -25 13 -101 14 -56 0 -96 -3 -90 -7 8 -5 10 -19 6 -42 -5
-28 -3 -37 10 -42 14 -5 15 -9 6 -20 -16 -19 -3 -69 15 -62 8 3 14 1 14 -4 0
-6 -7 -10 -16 -10 -8 0 -12 -5 -9 -10 3 -6 7 -37 8 -70 1 -41 6 -60 14 -60 7
0 13 -5 13 -11 0 -6 -9 -9 -20 -6 -14 3 -18 1 -13 -6 5 -7 9 -32 10 -57 0 -25
2 -55 2 -66 1 -17 6 -20 27 -16 19 3 25 1 20 -7 -4 -6 -14 -11 -23 -11 -11 0
-14 -8 -11 -30 2 -16 1 -31 -2 -32 -4 -2 -10 -20 -14 -40 -6 -31 -4 -38 9 -38
9 0 13 -5 9 -11 -4 -7 0 -9 12 -6 74 21 71 21 49 3 -20 -17 -20 -17 5 -11 l25
6 -24 -14 c-24 -14 -57 -12 -67 4 -3 5 -12 9 -21 9 -13 0 -13 -3 -3 -15 9 -10
9 -15 1 -15 -13 0 -15 -57 -2 -62 4 -1 0 -12 -10 -22 -19 -19 -19 -18 -21 30
-3 76 -2 87 6 114 6 20 5 22 -4 10 -9 -12 -10 -5 -6 30 5 45 -12 171 -25 180
-6 4 -39 77 -39 86 0 2 4 4 8 4 5 0 13 -17 19 -37 10 -37 10 -37 10 22 0 48
-4 64 -22 80 -12 12 -20 27 -17 35 3 13 2 13 -7 0 -6 -8 -11 -23 -11 -33 0
-10 -4 -15 -10 -12 -6 3 -10 23 -10 44 0 24 -7 45 -21 60 -12 13 -19 30 -16
42 6 21 -8 27 -16 7 -4 -9 -6 -8 -6 2 -2 33 -51 120 -67 120 -11 0 -14 -5 -9
-17 3 -10 9 -31 12 -48 4 -16 14 -49 25 -73 10 -24 18 -49 17 -55 0 -7 -4 -3
-9 8 -5 11 -9 14 -9 6 -2 -26 40 -254 50 -272 12 -23 12 -79 0 -79 -6 0 -8 17
-5 38 3 28 2 32 -5 17 -10 -21 -11 -18 -15 28 -1 6 -3 14 -7 17 -3 3 -18 46
-33 95 -28 90 -57 157 -64 151 -2 -2 4 -21 12 -41 9 -21 16 -47 16 -59 -1 -14
-6 -8 -15 17 -15 44 -31 64 -21 27 6 -19 5 -21 -3 -10 -6 8 -8 29 -5 45 4 25
1 32 -20 41 -32 15 -37 9 -31 -35 6 -42 -2 -24 -30 71 -9 32 -21 60 -26 64 -5
3 -9 18 -9 34 0 25 -4 29 -29 28 -28 -1 -29 -2 -19 -32 6 -17 15 -37 21 -44
12 -15 26 -79 33 -147 4 -45 3 -48 -10 -30 -7 11 -16 29 -19 40 -3 11 -4 0 -2
-25 2 -25 2 -37 -1 -27 -3 9 -9 17 -14 17 -4 0 -7 15 -6 32 1 18 -3 39 -11 46
-11 11 -13 10 -13 -8 0 -11 -8 -33 -17 -48 -17 -26 -17 -27 1 -12 18 14 18 13
11 -19 -5 -25 -4 -32 5 -26 8 5 11 3 9 -4 -9 -27 -25 -10 -42 46 -10 32 -23
66 -29 77 -6 12 -6 16 0 12 6 -4 6 6 -1 24 -8 20 -14 26 -20 17 -5 -7 -6 -4
-2 10 3 12 1 39 -4 60 -8 29 -16 39 -33 40 -12 1 -26 -3 -30 -10 -6 -9 -8 -9
-8 1 0 6 -10 12 -22 12 -13 0 -18 -4 -12 -8 12 -8 37 -112 29 -121 -3 -3 -8 5
-12 17 -3 12 -9 22 -14 22 -11 0 -12 -34 -2 -44 4 -4 8 -26 9 -49 l2 -42 -11
33 c-9 24 -15 30 -23 22 -9 -9 -18 2 -34 39 -13 28 -27 48 -32 45 -5 -3 -8 -2
-7 3 1 4 -1 25 -6 46 -6 31 -11 38 -29 35 -19 -3 -21 -9 -20 -63 1 -33 5 -82
9 -109 8 -47 8 -48 -14 -35 -11 8 -21 22 -21 31 0 10 -4 18 -9 18 -5 0 -15 2
-23 5 -10 4 -13 -15 -11 -92 3 -129 13 -149 138 -283 55 -59 150 -138 195
-161 38 -20 41 -25 36 -52 -3 -16 -16 -38 -27 -48 -21 -18 -21 -19 -3 -26 16
-6 14 -8 -11 -13 -24 -4 -30 -10 -30 -30 0 -15 5 -24 13 -22 8 1 11 -2 7 -8
-3 -5 0 -10 7 -10 10 0 9 -3 -2 -11 -17 -12 -14 -11 48 16 23 10 42 22 42 27
0 23 145 2 161 -24 4 -5 15 -8 25 -6 14 2 2 12 -38 33 -67 34 -75 50 -20 40
55 -10 93 -28 87 -43 -3 -7 0 -10 5 -7 6 3 14 -5 19 -18 7 -18 24 -30 58 -41
64 -21 86 -48 90 -110 2 -37 -4 -62 -23 -100 -35 -69 -50 -84 -103 -101 -25
-7 -38 -14 -28 -14 11 -1 17 -9 17 -26 0 -14 -8 -33 -17 -43 -10 -9 -20 -30
-21 -46 -2 -16 -7 -39 -12 -50 -8 -20 -8 -20 -16 -2 -5 13 -3 21 4 24 7 2 12
11 12 20 0 11 -7 7 -20 -13 -21 -32 -27 -60 -10 -50 6 3 10 -1 10 -9 0 -9 8
-16 18 -17 10 0 12 -3 4 -6 -6 -2 -10 -9 -7 -14 4 -5 -1 -6 -9 -3 -9 3 -16 12
-16 20 0 8 -9 14 -20 14 -18 0 -24 -12 -23 -47 1 -7 -3 -10 -8 -7 -5 3 -9 -2
-9 -10 0 -9 -7 -16 -15 -16 -8 0 -15 -4 -15 -10 0 -18 20 -11 46 15 14 15 23
32 20 40 -3 8 -1 15 4 15 17 0 11 -36 -10 -63 -11 -14 -20 -34 -20 -44 0 -13
-8 -19 -25 -21 -19 -1 -25 3 -25 18 0 26 -15 26 -33 0 -8 -11 -16 -17 -19 -14
-4 3 -9 -4 -13 -15 -3 -12 -11 -21 -16 -21 -5 0 -9 -9 -9 -20 0 -10 -9 -24
-21 -30 -11 -7 -27 -27 -35 -46 -8 -19 -19 -34 -24 -34 -6 0 -10 -9 -10 -19 0
-11 -3 -21 -7 -23 -14 -6 -43 -66 -43 -88 0 -11 -4 -19 -9 -16 -5 3 -12 -1
-15 -10 -8 -21 -8 -26 2 -21 4 3 7 -8 7 -24 0 -16 -1 -29 -3 -29 -5 0 -25 55
-23 63 1 5 -3 6 -8 2 -6 -3 -8 -12 -4 -20 4 -11 1 -13 -11 -9 -9 3 -16 1 -16
-6 0 -6 -7 -18 -15 -26 -8 -9 -15 -26 -15 -38 0 -13 -7 -40 -15 -59 -8 -20
-12 -43 -9 -51 3 -9 4 -16 0 -16 -3 0 -9 15 -14 33 l-9 32 -20 -33 c-12 -19
-23 -28 -25 -21 -2 7 -10 9 -16 5 -9 -5 -9 -13 -2 -27 8 -15 7 -23 -5 -35 -13
-14 -15 -13 -15 5 0 23 -15 28 -23 9 -4 -10 -8 -10 -15 1 -5 7 -23 13 -38 13
-16 0 -32 5 -36 12 -5 7 -8 5 -8 -6 0 -10 -4 -18 -10 -18 -5 0 -10 5 -10 12 0
6 -9 3 -20 -7 -19 -17 -20 -17 -27 1 -10 23 -33 30 -33 9 0 -8 -4 -15 -10 -15
-5 0 -10 9 -10 19 0 14 -6 19 -25 17 -19 -3 -25 2 -31 26 -4 22 -9 27 -17 19
-18 -18 -37 -12 -38 12 0 12 -3 16 -6 9 -9 -22 -23 -1 -17 25 6 23 4 25 -15
20 -16 -4 -21 -1 -21 14 0 10 4 19 10 19 6 0 6 9 1 23 -4 12 -6 28 -4 35 3 7
-4 12 -15 12 -15 0 -19 5 -15 20 3 11 0 20 -6 20 -6 0 -11 10 -11 23 0 37 -48
29 -67 -11 -9 -18 -21 -32 -27 -32 -14 0 -44 20 -31 20 6 0 3 5 -7 10 -15 9
-26 29 -72 133 -9 20 -26 46 -38 57 -33 31 -73 146 -71 209 1 34 -2 49 -7 41
-10 -17 -19 -11 -25 16 -2 11 -7 29 -11 42 -5 17 -2 22 12 22 14 0 15 3 6 12
-15 15 -16 32 -2 23 6 -3 10 -1 10 4 0 6 -5 11 -11 11 -6 0 -8 9 -4 21 5 15 4
19 -4 15 -7 -4 -11 1 -11 13 0 12 4 21 8 21 5 0 7 34 6 75 -2 57 0 75 11 75
20 0 27 48 11 80 -9 19 -10 30 -3 33 11 3 -12 67 -24 67 -9 0 -29 86 -30 130
-2 85 30 219 53 220 9 0 -1 -28 -19 -55 -16 -24 -18 -181 -2 -190 13 -8 39 25
32 41 -3 9 5 10 30 4 19 -4 40 -10 46 -14 6 -4 11 -1 11 7 0 8 -10 18 -22 22
-13 4 -26 8 -30 10 -5 1 -13 3 -19 4 -7 1 -9 10 -5 24 4 12 9 42 12 67 3 25
10 50 15 57 6 7 6 13 1 17 -5 3 -7 18 -4 33 l6 28 7 -25 c6 -22 7 -20 10 15 1
22 3 92 5 155 3 116 5 143 17 170 8 20 27 92 27 105 0 28 -42 -77 -47 -118 -9
-71 -22 -67 -17 6 6 83 13 136 25 171 5 16 7 31 4 34 -2 3 -7 -1 -9 -9 -12
-38 -25 -90 -37 -146 -7 -34 -16 -60 -19 -58 -7 4 -3 -70 5 -92 2 -7 0 -13 -5
-13 -6 0 -10 -11 -10 -25 0 -14 -4 -25 -10 -25 -5 0 -10 6 -10 13 0 8 -3 8 -9
-2 -6 -9 -10 3 -12 38 -2 28 -2 51 1 51 3 0 6 10 7 23 5 60 22 176 31 204 15
46 -1 49 -31 5z m1257 13 c-4 -8 -8 -15 -10 -15 -2 0 -4 7 -4 15 0 8 4 15 10
15 5 0 7 -7 4 -15z m616 5 c0 -5 -5 -10 -11 -10 -5 0 -7 5 -4 10 3 6 8 10 11
10 2 0 4 -4 4 -10z m-1003 -32 c-3 -7 -5 -2 -5 12 0 14 2 19 5 13 2 -7 2 -19
0 -25z m953 -30 c0 -5 -4 -8 -10 -8 -5 0 -10 10 -10 23 0 18 2 19 10 7 5 -8
10 -18 10 -22z m134 26 c24 -9 9 -24 -25 -24 -19 0 -29 5 -29 15 0 15 26 20
54 9z m-189 -24 c3 -5 -1 -10 -9 -10 -9 0 -16 5 -16 10 0 6 4 10 9 10 6 0 13
-4 16 -10z m140 -40 c3 -5 1 -10 -4 -10 -6 0 -11 5 -11 10 0 6 2 10 4 10 3 0
8 -4 11 -10z m-855 -40 c0 -11 -2 -20 -4 -20 -2 0 -6 9 -9 20 -3 11 -1 20 4
20 5 0 9 -9 9 -20z m880 -40 c8 -5 11 -10 5 -10 -5 0 -17 5 -25 10 -8 5 -10
10 -5 10 6 0 17 -5 25 -10z m-101 -3 c-2 -1 -15 -11 -28 -22 -14 -11 -21 -14
-17 -7 4 7 1 12 -9 12 -9 0 -13 5 -10 10 3 6 20 10 37 10 17 0 29 -1 27 -3z
m136 -28 c10 -16 -1 -22 -26 -14 -17 6 -19 9 -8 16 19 12 26 11 34 -2z m-335
-60 c0 -5 -4 -9 -10 -9 -5 0 -10 7 -10 16 0 8 5 12 10 9 6 -3 10 -10 10 -16z
m320 17 c0 -3 -4 -8 -10 -11 -5 -3 -10 -1 -10 4 0 6 5 11 10 11 6 0 10 -2 10
-4z m-2213 -128 c-3 -7 -5 -2 -5 12 0 14 2 19 5 13 2 -7 2 -19 0 -25z m2093
28 c0 -2 -11 -6 -25 -8 -14 -3 -25 -1 -25 3 0 5 11 9 25 9 14 0 25 -2 25 -4z
m-1825 -67 c-4 -66 -15 -76 -15 -12 0 42 5 63 15 63 2 0 1 -23 0 -51z m-278
-1 c-3 -8 -6 -5 -6 6 -1 11 2 17 5 13 3 -3 4 -12 1 -19z m1820 0 c-3 -8 -6 -5
-6 6 -1 11 2 17 5 13 3 -3 4 -12 1 -19z m13 -108 c0 -5 -4 -10 -10 -10 -5 0
-10 5 -10 10 0 6 5 10 10 10 6 0 10 -4 10 -10z m-2326 -54 c-6 -16 -24 -23
-24 -8 0 10 22 33 27 28 2 -2 1 -11 -3 -20z m147 10 c-10 -12 -6 -15 23 -18
27 -2 33 -6 27 -16 -9 -14 -81 -23 -81 -10 0 3 -6 8 -12 11 -7 2 -5 3 5 2 9
-2 17 2 17 9 0 7 5 17 12 24 17 17 23 15 9 -2z m376 -8 c-3 -8 -6 -5 -6 6 -1
11 2 17 5 13 3 -3 4 -12 1 -19z m1802 -60 c1 -27 -2 -48 -6 -48 -5 0 -8 30 -8
66 -1 38 2 58 6 48 4 -11 8 -40 8 -66z m-1702 40 c-3 -7 -5 -2 -5 12 0 14 2
19 5 13 2 -7 2 -19 0 -25z m1903 -4 c0 -8 -4 -12 -10 -9 -5 3 -10 10 -10 16 0
5 5 9 10 9 6 0 10 -7 10 -16z m-2478 -38 c-2 -5 1 -6 9 -4 8 3 13 13 11 22 -3
15 0 15 18 4 16 -10 18 -14 5 -16 -8 -2 -12 -8 -9 -14 5 -8 -5 -9 -32 -5 -21
4 -48 7 -59 8 -13 0 -8 4 13 10 19 6 32 16 33 27 0 14 2 14 8 -3 5 -11 6 -24
3 -29z m562 -29 c4 -15 11 -25 15 -22 5 3 9 -12 9 -33 -1 -70 6 -117 16 -124
7 -5 7 -8 -1 -8 -18 0 -16 -25 2 -40 8 -7 15 -20 15 -29 -1 -14 -2 -14 -11 2
-6 9 -14 15 -20 12 -5 -4 -9 13 -10 37 0 34 -2 39 -10 23 -6 -15 -7 -9 -4 20
3 22 -1 76 -10 120 -17 89 -19 138 -5 95 4 -14 11 -38 14 -53z m-445 30 c10 3
22 -1 26 -7 5 -9 2 -10 -13 -6 -13 4 -22 1 -26 -9 -6 -17 -15 -19 -36 -5 -13
8 -12 11 5 24 11 8 21 11 23 6 2 -4 11 -6 21 -3z m1908 7 c-3 -3 -12 -4 -19
-1 -8 3 -5 6 6 6 11 1 17 -2 13 -5z m-2082 -31 c9 4 14 3 11 -2 -10 -15 -45
-19 -50 -6 -6 17 6 28 15 14 4 -7 14 -9 24 -6z m668 -12 c11 -22 12 -28 2 -25
-7 3 -15 16 -18 30 -6 32 -2 30 16 -5z m-369 0 c8 -13 -34 -22 -64 -14 l-25 7
30 7 c44 10 53 10 59 0z m1763 3 c-3 -3 -12 -4 -19 -1 -8 3 -5 6 6 6 11 1 17
-2 13 -5z m-1942 -15 c4 -6 19 -7 36 -4 23 5 29 3 29 -10 0 -14 -6 -16 -32
-11 -32 6 -74 36 -51 36 7 0 15 -5 18 -11z m2515 7 c0 -3 -4 -8 -10 -11 -5 -3
-10 -1 -10 4 0 6 5 11 10 11 6 0 10 -2 10 -4z m-292 -47 c-3 -8 -7 -3 -11 10
-4 17 -3 21 5 13 5 -5 8 -16 6 -23z m-2102 4 c-2 -10 1 -21 7 -24 12 -8 0 -29
-16 -29 -8 0 -8 3 1 9 11 6 9 9 -6 13 -15 4 -19 2 -15 -8 3 -8 0 -14 -6 -14
-6 0 -11 5 -11 10 0 6 -3 9 -7 9 -21 -3 -33 2 -27 12 4 7 1 10 -7 7 -8 -3 -13
-12 -11 -22 2 -11 -4 -16 -20 -16 -19 0 -20 2 -8 10 13 8 12 10 -2 10 -10 0
-18 5 -18 10 0 6 12 10 28 10 22 0 24 2 12 11 -11 8 -9 9 10 3 14 -4 28 -11
31 -17 4 -5 10 -3 15 5 8 14 27 25 46 27 3 1 5 -7 4 -16z m2394 6 c0 -7 -10
-9 -25 -5 -15 4 -25 2 -25 -4 0 -6 -4 -8 -10 -5 -5 3 -10 1 -10 -5 0 -6 -4 -9
-10 -5 -5 3 -7 12 -3 20 6 18 83 21 83 4z m-2546 -14 c-4 -8 -14 -15 -23 -15
-14 1 -13 3 3 15 25 19 27 19 20 0z m-74 -19 c0 -3 -4 -8 -10 -11 -5 -3 -10
-1 -10 4 0 6 5 11 10 11 6 0 10 -2 10 -4z m564 -22 c3 -8 2 -12 -4 -9 -6 3
-10 10 -10 16 0 14 7 11 14 -7z m-609 -4 c-3 -5 -10 -10 -16 -10 -5 0 -9 5 -9
10 0 6 7 10 16 10 8 0 12 -4 9 -10z m90 -20 c3 -5 -1 -10 -9 -10 -8 0 -18 5
-21 10 -3 6 1 10 9 10 8 0 18 -4 21 -10z m2425 0 c0 -5 -4 -10 -10 -10 -5 0
-10 5 -10 10 0 6 5 10 10 10 6 0 10 -4 10 -10z m-2324 -26 c10 -8 13 -13 7 -9
-7 3 -13 2 -13 -2 0 -5 -16 -15 -35 -22 -19 -7 -33 -17 -30 -22 4 -5 -1 -9 -9
-9 -29 0 -17 28 14 35 24 5 29 10 20 20 -8 10 -7 14 2 18 21 8 23 8 44 -9z
m31 -6 c-3 -8 -6 -5 -6 6 -1 11 2 17 5 13 3 -3 4 -12 1 -19z m513 12 c0 -5 -2
-10 -4 -10 -3 0 -8 5 -11 10 -3 6 -1 10 4 10 6 0 11 -4 11 -10z m-670 -21 c0
-5 -4 -9 -10 -9 -5 0 -10 7 -10 16 0 8 5 12 10 9 6 -3 10 -10 10 -16z m217
-11 c-3 -7 -5 -2 -5 12 0 14 2 19 5 13 2 -7 2 -19 0 -25z m2233 28 c0 -3 -4
-8 -10 -11 -5 -3 -10 -1 -10 4 0 6 5 11 10 11 6 0 10 -2 10 -4z m-1892 -61 c0
-16 -2 -15 -8 5 -11 34 -11 60 0 35 5 -11 8 -29 8 -40z m-268 35 c0 -5 -5 -10
-11 -10 -5 0 -7 5 -4 10 3 6 8 10 11 10 2 0 4 -4 4 -10z m106 -12 c4 -7 3 -8
-4 -4 -15 9 -15 7 3 -45 9 -24 12 -39 7 -34 -14 15 -32 76 -26 86 7 12 11 11
20 -3z m-386 -8 c-8 -5 -19 -10 -25 -10 -5 0 -3 5 5 10 8 5 20 10 25 10 6 0 3
-5 -5 -10z m110 -10 c-13 -8 -12 -10 4 -10 11 0 17 -3 13 -6 -3 -4 -13 -4 -22
0 -18 6 -11 26 8 26 7 0 6 -4 -3 -10z m76 -27 c-10 -10 -19 5 -10 18 6 11 8
11 12 0 2 -7 1 -15 -2 -18z m-203 -14 c18 -18 19 -21 4 -15 -10 3 -22 6 -26 6
-4 0 -8 7 -8 15 0 20 4 19 30 -6z m67 14 c0 -1 -3 -8 -6 -17 -5 -12 -10 -13
-25 -5 -27 14 -24 27 6 25 14 0 25 -2 25 -3z m71 -3 c9 0 19 -8 23 -17 3 -10
9 -25 12 -33 4 -12 4 -12 -4 -1 -6 8 -12 9 -16 3 -11 -19 22 -21 39 -2 15 17
15 19 -2 30 -16 10 -14 11 10 7 15 -2 27 0 27 5 0 6 7 8 15 5 8 -4 17 -2 20 3
3 5 13 6 23 3 14 -6 13 -8 -8 -13 -16 -4 -26 -14 -28 -28 -2 -12 -10 -22 -17
-22 -8 0 -17 -5 -21 -11 -8 -14 38 -1 47 14 4 5 13 7 20 5 8 -3 0 -10 -18 -18
-17 -8 -29 -18 -27 -22 3 -4 -2 -5 -12 -1 -14 5 -15 3 -4 -17 11 -20 14 -21
21 -7 5 9 16 14 24 11 8 -4 12 -10 9 -15 -3 -5 2 -9 11 -9 10 0 13 -5 9 -12
-5 -8 -2 -9 9 -5 14 5 17 0 16 -26 0 -29 -1 -30 -9 -10 -6 13 -15 20 -23 17
-8 -3 -20 2 -27 11 -17 20 -29 19 -28 -2 1 -25 -5 -47 -17 -56 -6 -5 -4 -7 5
-4 8 2 15 10 15 18 0 19 49 18 53 -2 4 -21 -93 -42 -109 -23 -8 10 -15 11 -31
1 -16 -9 -22 -9 -25 1 -3 6 -13 12 -23 12 -10 0 -22 4 -25 10 -3 6 1 7 9 4 9
-4 16 -1 16 6 0 9 10 11 30 7 17 -4 30 -2 30 3 0 6 -6 10 -12 10 -8 0 -9 3 -3
8 14 10 19 46 6 37 -6 -3 -11 -1 -11 5 0 6 11 15 25 20 31 12 32 19 2 13 -18
-4 -23 0 -24 18 -1 12 -8 26 -15 32 -9 6 -8 7 5 3 11 -3 17 0 17 9 0 18 -41
20 -57 4 -8 -8 -13 -8 -17 0 -4 6 0 11 11 11 15 0 16 2 3 11 -12 8 -10 9 10 5
14 -3 32 -6 41 -6z m2382 -40 c8 0 7 -4 -1 -12 -17 -17 -32 6 -23 36 6 21 6
21 9 -1 2 -13 8 -23 15 -23z m54 18 c-3 -8 -6 -5 -6 6 -1 11 2 17 5 13 3 -3 4
-12 1 -19z m-100 -10 c-3 -8 -6 -5 -6 6 -1 11 2 17 5 13 3 -3 4 -12 1 -19z
m-2502 -8 c-3 -5 -12 -7 -20 -3 -21 7 -19 13 6 13 11 0 18 -4 14 -10z m82 -6
c-3 -3 -12 -4 -19 -1 -8 3 -5 6 6 6 11 1 17 -2 13 -5z m68 -12 c-3 -3 -11 0
-18 7 -9 10 -8 11 6 5 10 -3 15 -9 12 -12z m423 -52 c9 -50 9 -70 -2 -59 -2 2
-6 24 -10 48 -3 24 -10 49 -16 56 -11 13 -1 30 11 18 4 -5 12 -33 17 -63z
m2109 64 c-3 -3 -12 -4 -19 -1 -8 3 -5 6 6 6 11 1 17 -2 13 -5z m-2647 -8 c0
-11 -19 -15 -25 -6 -3 5 1 10 9 10 9 0 16 -2 16 -4z m90 -16 c0 -5 -8 -14 -17
-20 -15 -8 -12 -9 12 -5 23 5 26 4 14 -4 -20 -13 -85 -9 -101 7 -9 9 -8 12 6
12 9 0 14 -4 11 -10 -9 -15 12 -12 28 5 8 8 17 11 21 8 3 -4 6 -1 6 5 0 7 5
12 10 12 6 0 10 -4 10 -10z m-130 -49 c9 -20 8 -22 -5 -17 -9 3 -24 6 -33 7
-12 0 -13 2 -4 6 10 4 10 8 -3 17 -13 9 -12 11 9 11 17 0 29 -8 36 -24z m2450
-2 c-11 -19 -10 -21 3 -16 17 7 32 -19 16 -29 -6 -3 -8 -13 -5 -23 5 -12 2
-11 -9 3 -8 11 -15 23 -15 27 0 7 -39 22 -52 20 -5 -1 -8 3 -8 7 0 17 13 21
31 11 14 -7 21 -5 31 10 16 27 23 19 8 -10z m-2417 -6 c-3 -7 2 -13 12 -13 9
0 13 -5 10 -10 -8 -13 -22 -5 -34 19 -7 13 -6 18 4 18 7 0 11 -6 8 -14z m62
-21 c-8 -8 -25 10 -19 20 4 6 9 5 15 -3 4 -7 6 -15 4 -17z m483 -32 c9 0 12
-6 8 -15 -3 -9 1 -47 9 -86 16 -75 19 -191 6 -224 -10 -23 -20 54 -20 146 0
36 -5 60 -14 67 -9 8 -12 23 -9 39 3 18 1 24 -7 19 -8 -5 -11 2 -10 21 1 15
-1 44 -4 63 l-7 35 17 -32 c9 -18 23 -33 31 -33z m-415 25 c-7 -21 -13 -19
-13 6 0 11 4 18 10 14 5 -3 7 -12 3 -20z m2372 15 c3 -5 2 -10 -4 -10 -5 0
-13 5 -16 10 -3 6 -2 10 4 10 5 0 13 -4 16 -10z m195 -25 c0 -13 -4 -14 -22
-4 -34 17 -34 19 -5 19 18 0 27 -5 27 -15z m-2638 -2 c-6 -3 -10 -9 -7 -14 4
-5 -2 -6 -11 -2 -12 4 -15 3 -10 -5 13 -21 -24 -26 -39 -6 -18 26 -7 34 12 9
11 -14 14 -15 10 -3 -7 21 -2 26 31 25 15 0 21 -2 14 -4z m330 -25 c-8 -8 -9
-4 -5 13 4 13 8 18 11 10 2 -7 -1 -18 -6 -23z m2018 2 c0 -11 -4 -20 -10 -20
-5 0 -10 -8 -11 -17 0 -10 -5 -5 -9 11 -10 33 -6 46 16 46 8 0 14 -9 14 -20z
m220 0 c0 -12 -8 -12 -35 0 -18 8 -17 9 8 9 15 1 27 -3 27 -9z m-1940 -20 c0
-11 -2 -20 -4 -20 -2 0 -6 9 -9 20 -3 11 -1 20 4 20 5 0 9 -9 9 -20z m1836 -5
c0 -14 -2 -25 -3 -25 -1 0 -8 3 -17 6 -12 5 -13 9 -3 25 16 26 25 24 23 -6z
m-2456 -5 c0 -5 -7 -7 -15 -4 -8 4 -15 8 -15 10 0 2 7 4 15 4 8 0 15 -4 15
-10z m310 -60 c0 -24 1 -23 17 8 8 18 18 30 21 27 3 -3 0 -11 -6 -17 -7 -7
-12 -21 -12 -32 0 -18 2 -18 10 -6 8 11 9 8 4 -12 -4 -17 -2 -28 4 -28 6 0 14
-17 17 -37 4 -21 11 -49 16 -63 8 -23 9 -22 6 8 -2 17 -2 32 0 32 11 0 33 -73
29 -95 -3 -14 -3 -25 -1 -25 2 0 18 21 35 48 18 26 30 39 26 29 -3 -10 -6 -25
-6 -33 0 -9 -5 -12 -11 -8 -6 4 -10 -1 -8 -12 4 -34 -13 -99 -30 -112 -15 -12
-15 -14 1 -26 11 -8 14 -17 8 -26 -6 -9 -5 -17 2 -21 8 -5 8 -16 -2 -38 -24
-60 -86 -110 -144 -117 l-36 -4 22 22 c14 14 18 23 10 26 -25 8 -11 24 18 20
21 -3 35 1 47 14 17 19 5 26 -14 7 -7 -7 -22 -8 -48 0 -20 5 -72 9 -114 7 -42
-2 -66 -1 -54 1 14 3 20 9 16 19 -3 8 0 14 6 14 6 0 11 -6 12 -12 0 -7 5 -2
10 11 8 20 11 22 26 10 15 -12 16 -12 10 3 -3 9 2 25 12 37 21 25 36 28 27 6
-4 -13 -2 -13 14 -5 10 5 22 15 25 20 3 6 16 11 28 11 12 1 -1 6 -30 11 -50 9
-52 10 -43 34 6 14 9 30 7 37 -1 7 6 11 16 11 9 -1 17 2 17 7 0 5 -5 9 -11 9
-6 0 -8 9 -4 20 5 16 2 20 -15 20 -18 0 -20 -4 -14 -22 3 -13 3 -20 -1 -16 -4
4 -16 3 -26 -3 -15 -8 -19 -6 -19 8 0 15 -2 16 -10 3 -8 -13 -10 -12 -10 4 0
14 5 17 25 12 18 -5 25 -2 25 8 0 17 24 28 45 20 8 -4 15 -1 15 5 0 6 8 11 17
11 15 0 14 -2 -3 -16 -13 -10 -15 -17 -7 -20 7 -3 9 -13 6 -22 -6 -14 -4 -15
9 -5 8 7 18 9 23 5 4 -4 4 8 0 26 -4 20 -3 32 4 32 18 0 13 29 -9 52 l-20 22
0 -21 c0 -12 5 -23 12 -25 7 -3 5 -7 -6 -11 -11 -4 -15 -3 -10 4 4 7 -1 9 -12
7 -11 -2 -18 -10 -17 -16 2 -7 -2 -12 -7 -12 -6 0 -10 7 -10 16 0 12 -6 15
-23 10 -14 -3 -32 1 -43 9 -18 14 -18 14 9 15 21 0 27 5 27 21 0 15 -5 19 -15
15 -9 -3 -18 1 -21 9 -4 10 -14 13 -33 9 -24 -5 -24 -5 7 15 18 12 46 21 62
21 17 0 30 5 30 10 0 6 -3 9 -7 9 -5 -1 -10 -1 -13 0 -3 2 -19 4 -37 6 -26 4
-30 2 -26 -14 3 -12 -2 -20 -14 -23 -10 -3 -26 -9 -35 -13 -10 -4 -18 -3 -18
3 0 5 13 12 30 15 21 5 28 11 24 22 -8 19 -24 20 -24 0 0 -8 -7 -15 -16 -15
-8 0 -12 5 -9 10 3 6 0 10 -8 10 -24 0 -29 41 -6 47 10 3 16 9 13 14 -3 5 -3
9 0 9 17 0 13 -22 -6 -29 -16 -6 -8 -8 32 -7 30 1 67 -4 83 -11 16 -8 27 -10
27 -3 0 5 -8 10 -17 10 -15 0 -16 2 -3 10 13 9 13 10 0 11 -10 0 -8 3 5 9 30
13 33 12 50 -17 12 -23 15 -24 14 -8 -1 11 -1 27 0 35 3 23 30 -31 31 -60z
m30 60 c0 -5 -4 -10 -10 -10 -5 0 -10 5 -10 10 0 6 5 10 10 10 6 0 10 -4 10
-10z m-465 -10 c3 -5 2 -10 -4 -10 -5 0 -13 5 -16 10 -3 6 -2 10 4 10 5 0 13
-4 16 -10z m2590 -22 c2 -2 -5 -9 -15 -16 -17 -10 -20 -10 -20 4 0 11 -6 15
-19 11 -10 -2 -25 -1 -32 4 -9 5 5 7 34 5 26 -2 50 -5 52 -8z m125 -3 c0 -8
-5 -15 -11 -15 -6 0 -8 -9 -4 -21 5 -15 4 -19 -4 -14 -8 4 -10 -2 -6 -23 5
-31 -10 -44 -67 -56 -28 -6 -40 8 -15 17 7 3 5 6 -5 6 -10 1 -18 -6 -18 -14 0
-8 -5 -15 -10 -15 -7 0 -7 7 1 21 9 17 17 20 42 15 41 -7 60 5 56 35 -2 13 0
30 4 37 5 6 4 12 -2 12 -6 0 -8 7 -5 15 4 8 15 15 25 15 10 0 19 -7 19 -15z
m-2153 -42 c-3 -10 -5 -4 -5 12 0 17 2 24 5 18 2 -7 2 -21 0 -30z m2073 17
c-11 -7 -60 -2 -60 6 0 2 16 3 35 2 20 -1 31 -4 25 -8z m130 -10 c0 -5 -6 -10
-14 -10 -8 0 -18 5 -21 10 -3 6 3 10 14 10 12 0 21 -4 21 -10z m-2593 -52 c-3
-8 -6 -5 -6 6 -1 11 2 17 5 13 3 -3 4 -12 1 -19z m596 2 c3 -11 1 -18 -4 -14
-5 3 -9 12 -9 20 0 20 7 17 13 -6z m-173 0 c0 -5 -4 -10 -10 -10 -5 0 -10 5
-10 10 0 6 5 10 10 10 6 0 10 -4 10 -10z m1780 -50 c0 -5 -7 -10 -16 -10 -8 0
-13 -4 -10 -9 3 -5 -6 -11 -20 -14 -19 -3 -24 -1 -20 10 3 8 6 19 6 24 0 5 14
9 30 9 17 0 30 -4 30 -10z m-2247 -20 c9 -11 13 -20 9 -20 -4 0 -15 9 -25 20
-9 11 -13 20 -9 20 4 0 15 -9 25 -20z m127 10 c-8 -5 -19 -10 -25 -10 -5 0 -3
5 5 10 8 5 20 10 25 10 6 0 3 -5 -5 -10z m2259 1 c7 -5 12 -13 10 -18 -2 -5
-12 -1 -21 9 -19 19 -13 24 11 9z m-2335 -10 c3 -5 -1 -11 -9 -15 -21 -7 -19
-19 5 -34 17 -10 25 -9 46 4 20 14 27 15 37 4 9 -10 9 -11 0 -6 -7 4 -21 2
-30 -4 -12 -7 -13 -10 -3 -7 38 11 72 -51 38 -67 -7 -3 -3 -3 9 -1 12 3 24 1
28 -5 3 -5 17 -10 31 -10 13 0 24 -4 24 -10 0 -5 -10 -10 -22 -10 -19 0 -20
-2 -8 -10 13 -8 12 -10 -2 -10 -11 0 -18 8 -18 19 0 20 -23 35 -35 23 -4 -4
-11 -8 -16 -8 -5 -1 -13 -2 -17 -3 -5 0 -14 -11 -20 -23 -6 -13 -11 -17 -11
-9 -1 8 8 25 20 37 23 25 18 44 -10 44 -24 0 -45 -25 -38 -44 7 -18 -12 -26
-36 -14 -9 5 -22 6 -27 3 -6 -3 -10 1 -10 10 0 9 4 14 9 11 15 -9 39 4 56 31
13 19 14 27 4 39 -17 21 -26 17 -33 -12 -6 -21 -10 -24 -19 -14 -9 10 -9 14 1
17 29 11 8 22 -35 18 -27 -2 -37 -1 -24 2 13 2 30 11 38 18 7 8 20 12 29 8 10
-4 17 2 21 16 6 22 18 27 27 12z m2236 -1 c0 -5 -5 -10 -11 -10 -5 0 -7 5 -4
10 3 6 8 10 11 10 2 0 4 -4 4 -10z m147 3 c-9 -2 -14 -9 -11 -15 4 -7 2 -8 -5
-4 -15 10 -4 26 17 25 15 -1 15 -2 -1 -6z m-87 -13 c-8 -5 -19 -10 -25 -10 -5
0 -3 5 5 10 8 5 20 10 25 10 6 0 3 -5 -5 -10z m-2192 -35 c-3 -3 -9 2 -12 12
-6 14 -5 15 5 6 7 -7 10 -15 7 -18z m2092 21 c0 -2 -7 -6 -15 -10 -8 -3 -15
-1 -15 4 0 6 7 10 15 10 8 0 15 -2 15 -4z m-2340 -37 c0 -21 -10 -25 -27 -8
-9 9 -8 15 0 24 15 16 27 9 27 -16z m657 -16 c-3 -10 -5 -4 -5 12 0 17 2 24 5
18 2 -7 2 -21 0 -30z m27 4 c4 -19 3 -26 -4 -22 -5 3 -10 18 -10 32 0 32 5 28
14 -10z m-394 13 c0 -5 -7 -7 -15 -4 -8 4 -15 8 -15 10 0 2 7 4 15 4 8 0 15
-4 15 -10z m1990 -1 c-12 -9 -11 -10 7 -6 15 3 20 1 16 -9 -4 -10 -10 -10 -29
-2 -25 12 -23 28 4 28 15 0 15 -2 2 -11z m290 1 c0 -5 -2 -10 -4 -10 -3 0 -8
5 -11 10 -3 6 -1 10 4 10 6 0 11 -4 11 -10z m-2496 -26 c9 -24 7 -29 -5 -17
-6 6 -19 9 -28 5 -14 -5 -14 -4 -2 11 17 21 27 22 35 1z m47 -7 c-10 -9 -11
-8 -5 6 3 10 9 15 12 12 3 -3 0 -11 -7 -18z m-121 -12 c0 -8 9 -19 20 -25 11
-6 19 -18 19 -28 -1 -15 -2 -15 -6 0 -4 16 -33 34 -33 20 0 -4 -12 -7 -27 -6
-39 2 -39 2 -39 23 0 11 5 17 13 14 7 -3 13 0 13 6 0 6 9 11 20 11 11 0 20 -7
20 -15z m2535 -5 c-3 -5 0 -10 7 -10 10 0 9 -3 -2 -11 -12 -8 -9 -9 10 -4 60
16 75 16 40 0 -44 -20 -80 -13 -73 15 3 11 10 20 15 20 5 0 6 -4 3 -10z
m-2488 -6 c-3 -3 -12 -4 -19 -1 -8 3 -5 6 6 6 11 1 17 -2 13 -5z m143 -9 c0
-1 -6 -7 -13 -13 -10 -8 -13 -6 -13 7 0 11 6 17 13 14 7 -3 13 -6 13 -8z
m2027 -7 c-3 -8 -6 -5 -6 6 -1 11 2 17 5 13 3 -3 4 -12 1 -19z m-1540 -25 c-3
-10 -5 -4 -5 12 0 17 2 24 5 18 2 -7 2 -21 0 -30z m1575 28 c-10 -6 -7 -10 13
-15 15 -4 33 -2 40 4 17 14 62 3 62 -16 0 -10 -4 -11 -14 -3 -7 6 -13 9 -13 6
0 -3 -3 -13 -7 -22 -5 -14 -2 -16 15 -11 11 4 23 2 27 -4 3 -5 0 -11 -7 -11
-7 -1 -17 -2 -23 -4 -5 -1 -20 -3 -32 -3 -13 -1 -23 -9 -23 -17 0 -13 4 -14
21 -4 17 9 20 8 14 -2 -5 -8 -4 -10 4 -5 6 4 9 11 6 16 -6 10 35 7 53 -4 7 -4
10 -11 7 -16 -3 -4 2 -11 11 -14 27 -10 4 -28 -28 -21 -23 6 -29 4 -23 -5 5
-9 4 -11 -3 -6 -18 11 -15 23 11 46 l22 22 -27 -13 c-16 -7 -28 -18 -28 -26 0
-16 -14 -17 -39 -1 -15 9 -17 17 -11 39 6 21 4 29 -8 34 -14 5 -14 7 -2 15 8
6 12 10 8 11 -5 1 -12 3 -18 4 -5 1 -14 3 -20 4 -18 2 -11 31 8 31 13 0 14 -2
4 -9z m208 -1 c21 -7 20 -8 -12 -7 -21 1 -38 5 -38 10 0 9 17 8 50 -3z m-2204
-55 c-6 -17 -26 -20 -26 -5 0 16 24 40 28 29 2 -5 1 -16 -2 -24z m1979 22 c10
-8 14 -16 9 -19 -5 -3 -17 3 -26 14 -21 21 -10 24 17 5z m356 -20 c-9 -9 -14
-8 -21 3 -5 8 -7 17 -4 19 3 3 9 -1 14 -9 8 -12 10 -11 11 5 0 12 3 15 6 7 3
-8 0 -19 -6 -25z m-2376 4 c-4 -20 16 -34 38 -25 8 3 13 -5 15 -20 2 -24 -22
-43 -33 -26 -4 6 -1 10 4 10 21 0 10 15 -20 29 -23 10 -28 16 -18 22 8 5 10 9
6 9 -5 0 -5 5 -2 10 10 16 14 12 10 -9z m2332 13 c-3 -3 -12 -4 -19 -1 -8 3
-5 6 6 6 11 1 17 -2 13 -5z m-97 -19 c0 -1 -11 -5 -24 -7 -16 -3 -23 -1 -19 7
3 10 43 10 43 0z m-2301 -6 c-18 -11 -39 -11 -39 0 0 5 12 9 26 9 18 0 22 -3
13 -9z m2018 -28 c-3 -12 1 -21 9 -23 8 -2 4 -7 -11 -14 -19 -9 -27 -9 -35 1
-9 11 -6 12 11 8 16 -4 20 -3 15 6 -8 13 -1 41 10 41 3 0 4 -9 1 -19z m288 9
c-3 -5 -12 -10 -18 -10 -7 0 -6 4 3 10 19 12 23 12 15 0z m182 4 c-3 -3 -12
-4 -19 -1 -8 3 -5 6 6 6 11 1 17 -2 13 -5z m-59 -16 c-7 -7 -31 -14 -53 -15
-35 -1 -37 0 -16 8 14 5 30 8 38 5 7 -3 15 -1 18 4 4 6 11 10 16 10 6 0 4 -6
-3 -12z m-2418 -13 c0 -1 -9 -5 -19 -8 -13 -3 -18 -1 -14 9 4 10 33 10 33 -1z
m34 0 c-4 -8 -8 -15 -10 -15 -2 0 -4 7 -4 15 0 8 4 15 10 15 5 0 7 -7 4 -15z
m2286 -5 c0 -5 -8 -10 -17 -10 -15 0 -16 2 -3 10 19 12 20 12 20 0z m-2378 -7
c-6 -2 -10 -9 -6 -14 3 -5 0 -9 -5 -9 -12 0 -14 13 -4 23 3 4 11 7 17 6 6 0 5
-3 -2 -6z m2565 -25 c-3 -8 -6 -5 -6 6 -1 11 2 17 5 13 3 -3 4 -12 1 -19z m30
0 c-3 -8 -6 -5 -6 6 -1 11 2 17 5 13 3 -3 4 -12 1 -19z m-477 2 c0 -5 -5 -10
-11 -10 -5 0 -7 5 -4 10 3 6 8 10 11 10 2 0 4 -4 4 -10z m-2040 -10 c0 -4 -8
-14 -17 -21 -10 -7 -15 -9 -11 -5 4 5 0 15 -9 21 -15 11 -14 13 10 13 15 0 27
-4 27 -8z m50 6 c0 -3 -4 -8 -10 -11 -5 -3 -10 -1 -10 4 0 6 5 11 10 11 6 0
10 -2 10 -4z m1841 -29 c-6 -6 -11 -19 -11 -28 0 -10 -3 -19 -7 -21 -5 -1 -18
-23 -30 -48 -17 -34 -22 -39 -20 -20 1 15 -3 24 -10 23 -19 -4 -2 30 42 82 21
26 41 42 43 35 2 -6 -1 -17 -7 -23z m32 18 c-3 -9 -8 -14 -10 -11 -3 3 -2 9 2
15 9 16 15 13 8 -4z m332 -5 c-3 -5 -11 -10 -16 -10 -6 0 -7 5 -4 10 3 6 11
10 16 10 6 0 7 -4 4 -10z m-35 -10 c0 -5 -7 -7 -15 -4 -8 4 -15 8 -15 10 0 2
7 4 15 4 8 0 15 -4 15 -10z m-2283 -16 c-3 -3 -12 -4 -19 -1 -8 3 -5 6 6 6 11
1 17 -2 13 -5z m2097 -6 c-3 -4 -14 -8 -24 -8 -10 0 -21 4 -24 8 -3 5 8 9 24
9 16 0 27 -4 24 -9z m176 -4 c14 -1 29 -3 34 -3 15 -2 0 -11 -24 -16 -12 -2
-29 -14 -37 -25 -8 -11 -20 -20 -26 -20 -8 0 -9 3 -1 8 20 13 23 51 6 63 -14
9 -14 9 3 3 11 -4 31 -8 45 -10z m-120 -4 c0 -5 -5 -10 -11 -10 -5 0 -7 5 -4
10 3 6 8 10 11 10 2 0 4 -4 4 -10z m-2284 -16 c-3 -8 -2 -13 2 -10 4 2 18 -2
32 -10 22 -12 23 -13 5 -14 l-20 -1 20 -9 c19 -8 19 -9 -2 -9 -12 -1 -25 4
-28 9 -4 6 -11 8 -16 4 -12 -7 -49 24 -49 41 0 7 14 12 31 13 23 0 29 -3 25
-14z m70 1 c16 -16 44 -20 44 -7 0 4 9 8 20 8 13 0 19 -6 17 -16 -2 -11 -13
-14 -42 -12 -30 2 -36 0 -25 -8 13 -8 13 -10 -2 -10 -10 0 -18 7 -18 15 0 8
-4 15 -8 15 -5 0 -9 7 -9 15 0 8 2 15 4 15 3 0 11 -7 19 -15z m2184 5 c0 -5
-2 -10 -4 -10 -3 0 -8 5 -11 10 -3 6 -1 10 4 10 6 0 11 -4 11 -10z m80 -51 c0
-6 -4 -7 -10 -4 -5 3 -10 11 -10 16 0 6 5 7 10 4 6 -3 10 -11 10 -16z m81 -6
c12 -16 12 -17 -2 -6 -9 7 -20 9 -24 5 -5 -4 -5 -1 -1 6 9 16 11 15 27 -5z
m329 7 c0 -5 -8 -10 -17 -10 -15 0 -16 2 -3 10 19 12 20 12 20 0z m-150 -15
c0 -12 -19 -12 -23 0 -4 9 -1 12 9 8 7 -3 14 -7 14 -8z m-36 -11 c3 -8 2 -12
-4 -9 -6 3 -10 10 -10 16 0 14 7 11 14 -7z m-2564 -4 c0 -5 -4 -10 -10 -10 -5
0 -10 5 -10 10 0 6 5 10 10 10 6 0 10 -4 10 -10z m2684 -9 c3 -5 -1 -11 -9
-14 -9 -4 -12 -1 -8 9 6 16 10 17 17 5z m63 3 c-3 -3 -12 -4 -19 -1 -8 3 -5 6
6 6 11 1 17 -2 13 -5z m-2420 -16 c-20 -7 -35 -7 -50 0 -18 9 -14 11 28 11 46
-1 48 -1 22 -11z m133 2 c-8 -5 -19 -10 -25 -10 -5 0 -3 5 5 10 8 5 20 10 25
10 6 0 3 -5 -5 -10z m-40 -18 c0 -15 -66 -32 -120 -32 -29 0 -50 3 -46 7 4 4
26 6 49 4 23 -1 58 5 77 13 42 18 40 18 40 8z m2305 -12 c3 -5 1 -10 -4 -10
-6 0 -11 5 -11 10 0 6 2 10 4 10 3 0 8 -4 11 -10z m-278 -16 c-3 -3 -12 -4
-19 -1 -8 3 -5 6 6 6 11 1 17 -2 13 -5z m-32 -14 c4 -6 11 -8 16 -5 5 4 9 2 9
-3 0 -11 -30 -26 -44 -23 -5 1 -6 -5 -3 -14 4 -9 1 -15 -7 -15 -22 0 -14 30
11 36 22 6 23 7 6 20 -10 7 -13 14 -6 14 6 0 15 -5 18 -10z m-103 -27 c-5 -23
-7 -25 -10 -8 -2 11 -9 23 -16 27 -6 5 -3 8 10 8 18 0 20 -4 16 -27z m173 18
c-3 -5 7 -11 22 -13 28 -3 47 -38 21 -38 -17 0 -60 45 -51 54 10 9 15 7 8 -3z
m-125 -16 c-7 -9 -15 -13 -19 -10 -3 3 1 10 9 15 21 14 24 12 10 -5z m-180
-11 c0 -2 -9 -4 -20 -4 -11 0 -20 4 -20 9 0 5 9 7 20 4 11 -3 20 -7 20 -9z
m550 -8 c0 -3 -4 -8 -10 -11 -5 -3 -10 -1 -10 4 0 6 5 11 10 11 6 0 10 -2 10
-4z m-1634 -43 c-4 -9 -1 -20 6 -24 7 -4 9 -11 5 -16 -5 -4 -12 -1 -16 6 -5 7
-14 10 -20 7 -14 -9 -14 0 1 24 15 24 33 27 24 3z m1404 7 c0 -5 -7 -10 -16
-10 -8 0 -12 5 -9 10 3 6 10 10 16 10 5 0 9 -4 9 -10z m-2023 -22 c-3 -8 -6
-5 -6 6 -1 11 2 17 5 13 3 -3 4 -12 1 -19z m2173 8 c-15 -15 -38 -16 -43 -2
-3 8 5 13 24 13 20 0 26 -4 19 -11z m-537 -69 c42 -21 77 -40 77 -41 0 -2 -19
2 -43 8 -43 11 -88 36 -117 64 -17 18 -17 18 83 -31z m594 27 c-3 -3 -12 -4
-19 -1 -8 3 -5 6 6 6 11 1 17 -2 13 -5z m-2247 -18 c0 -3 -4 -8 -10 -11 -5 -3
-10 -1 -10 4 0 6 5 11 10 11 6 0 10 -2 10 -4z m-23 -108 c-3 -7 -5 -2 -5 12 0
14 2 19 5 13 2 -7 2 -19 0 -25z m1300 0 c-3 -8 -6 -5 -6 6 -1 11 2 17 5 13 3
-3 4 -12 1 -19z m-1310 -40 c-3 -8 -6 -5 -6 6 -1 11 2 17 5 13 3 -3 4 -12 1
-19z m856 -28 c-7 -28 -13 -25 -13 6 0 14 4 23 9 20 5 -3 7 -15 4 -26z"/>
<path d="M250 2209 c0 -5 5 -7 10 -4 6 3 10 8 10 11 0 2 -4 4 -10 4 -5 0 -10
-5 -10 -11z"/>
<path d="M290 1733 c0 -15 -2 -16 -10 -3 -5 8 -10 10 -10 4 0 -19 12 -23 31
-11 23 14 25 27 4 27 -8 0 -15 -8 -15 -17z"/>
<path d="M412 1660 c0 -14 2 -19 5 -12 2 6 2 18 0 25 -3 6 -5 1 -5 -13z"/>
<path d="M431 1594 c0 -11 3 -14 6 -6 3 7 2 16 -1 19 -3 4 -6 -2 -5 -13z"/>
<path d="M360 1580 c0 -5 7 -7 15 -4 8 4 15 8 15 10 0 2 -7 4 -15 4 -8 0 -15
-4 -15 -10z"/>
<path d="M410 1560 c0 -6 -4 -9 -9 -6 -4 3 -6 -7 -2 -22 5 -27 5 -27 9 -3 3
19 6 21 13 10 7 -11 9 -11 9 3 0 9 -4 20 -10 23 -5 3 -10 1 -10 -5z"/>
<path d="M432 1341 c-28 -17 -4 -39 46 -40 16 -1 22 4 20 17 -5 26 -41 39 -66
23z m46 -19 c2 -7 -1 -12 -7 -12 -6 0 -11 5 -11 11 0 5 -5 7 -12 3 -7 -4 -8
-3 -4 5 9 14 28 10 34 -7z"/>
<path d="M425 1240 c-4 -6 -15 -8 -26 -5 -11 4 -19 2 -19 -5 0 -15 62 -8 68 8
5 15 -14 16 -23 2z"/>
<path d="M2380 1321 c0 -6 5 -13 10 -16 6 -3 10 1 10 9 0 9 -4 16 -10 16 -5 0
-10 -4 -10 -9z"/>
<path d="M2385 1250 c3 -5 8 -10 11 -10 2 0 4 5 4 10 0 6 -5 10 -11 10 -5 0
-7 -4 -4 -10z"/>
<path d="M20 1150 c0 -4 7 -13 15 -20 12 -10 15 -9 15 7 0 11 -7 20 -15 20 -8
0 -15 -4 -15 -7z"/>
<path d="M1041 2818 c-12 -33 -23 -99 -12 -73 7 16 9 17 13 5 3 -8 4 -2 2 13
-2 15 0 26 5 23 5 -3 11 8 13 24 5 35 -9 40 -21 8z"/>
<path d="M1106 2831 c-20 -32 -47 -230 -37 -267 7 -26 8 -24 8 16 0 45 16 154
33 219 9 35 7 51 -4 32z"/>
<path d="M1670 2825 c0 -8 5 -15 10 -15 6 0 10 7 10 15 0 8 -4 15 -10 15 -5 0
-10 -7 -10 -15z"/>
<path d="M2000 2820 c0 -11 2 -20 4 -20 2 0 6 9 9 20 3 11 1 20 -4 20 -5 0 -9
-9 -9 -20z"/>
<path d="M2212 2780 c21 -60 38 -78 38 -39 0 13 -4 18 -12 13 -7 -4 -8 -3 -4
5 6 9 -28 81 -39 81 -2 0 6 -27 17 -60z"/>
<path d="M971 2814 c0 -11 3 -14 6 -6 3 7 2 16 -1 19 -3 4 -6 -2 -5 -13z"/>
<path d="M1841 2794 c0 -11 3 -14 6 -6 3 7 2 16 -1 19 -3 4 -6 -2 -5 -13z"/>
<path d="M1312 2760 c0 -14 2 -19 5 -12 2 6 2 18 0 25 -3 6 -5 1 -5 -13z"/>
<path d="M2190 2764 c0 -10 5 -26 10 -34 8 -11 9 -7 4 15 -8 37 -14 45 -14 19z"/>
<path d="M7 2743 c7 -2 19 -2 26 0 6 3 1 5 -13 5 -14 0 -19 -2 -13 -5z"/>
<path d="M1810 2735 c0 -5 5 -17 10 -25 5 -8 10 -10 10 -5 0 6 -5 17 -10 25
-5 8 -10 11 -10 5z"/>
<path d="M1321 2714 c0 -11 3 -14 6 -6 3 7 2 16 -1 19 -3 4 -6 -2 -5 -13z"/>
<path d="M1020 2710 c0 -6 -4 -9 -8 -6 -10 6 -7 -202 3 -233 3 -12 10 -21 15
-21 5 0 7 -8 4 -17 -5 -15 -4 -16 5 -3 9 12 11 13 11 1 0 -8 2 -12 5 -9 3 2
-4 22 -15 43 -21 41 -26 81 -11 87 5 2 6 32 2 70 -4 38 -3 72 2 77 5 5 4 12
-2 15 -6 4 -11 2 -11 -4z"/>
<path d="M2482 2690 c0 -14 2 -19 5 -12 2 6 2 18 0 25 -3 6 -5 1 -5 -13z"/>
<path d="M1231 2664 c0 -11 3 -14 6 -6 3 7 2 16 -1 19 -3 4 -6 -2 -5 -13z"/>
<path d="M45 2620 c-3 -5 -14 -10 -23 -10 -11 0 -18 -8 -18 -20 0 -11 4 -20 8
-20 4 0 8 -5 8 -11 0 -5 -4 -8 -8 -5 -4 2 -9 -4 -9 -15 -1 -12 3 -17 9 -13 7
5 9 -2 4 -20 -3 -14 -2 -26 3 -26 5 0 16 -3 24 -6 12 -4 17 3 19 28 l4 33 12
-27 c17 -42 34 -35 28 12 -3 24 -1 40 6 40 5 0 7 7 4 16 -3 9 -2 12 5 9 5 -4
7 -16 3 -28 -5 -17 -4 -19 6 -10 12 11 40 7 50 -8 3 -4 14 0 25 8 18 14 18 15
1 9 -12 -4 -25 1 -37 15 -11 12 -19 19 -19 15 0 -3 -12 1 -26 11 -25 16 -27
16 -36 -1 -7 -13 -17 -16 -36 -11 -23 6 -24 5 -11 -11 12 -15 12 -17 -1 -12
-25 8 -18 33 9 30 21 -2 22 0 10 15 -12 15 -12 16 4 10 11 -4 16 -3 12 3 -8
13 -22 13 -30 0z m52 -70 c0 -16 -4 -30 -9 -30 -4 0 -8 5 -8 10 0 6 -7 10 -16
10 -13 0 -14 3 -4 15 7 8 16 12 21 9 5 -3 9 0 9 5 0 6 2 11 3 11 2 0 4 -13 4
-30z m-53 -17 c4 -9 1 -21 -5 -27 -9 -8 -10 -7 -6 7 4 9 2 17 -3 17 -6 0 -10
5 -10 10 0 16 17 11 24 -7z"/>
<path d="M150 2620 c0 -9 31 -30 44 -30 16 0 3 18 -19 28 -14 7 -25 8 -25 2z"/>
<path d="M1225 2579 c5 -64 28 -146 41 -142 6 2 19 -15 29 -37 10 -22 21 -40
26 -40 4 0 14 -3 23 -6 9 -3 16 -1 16 5 0 6 -6 10 -12 8 -24 -4 -64 101 -67
175 -1 12 -6 15 -17 11 -14 -5 -16 -1 -12 26 3 17 1 34 -4 37 -4 3 -8 -1 -8
-8 0 -10 -2 -10 -9 1 -6 9 -8 -2 -6 -30z"/>
<path d="M233 2585 c-7 -8 -9 -16 -4 -19 5 -3 12 1 15 10 8 22 4 25 -11 9z"/>
<path d="M266 2565 c4 -8 12 -15 20 -15 20 0 17 7 -6 20 -16 9 -18 8 -14 -5z"/>
<path d="M710 2559 c0 -11 4 -18 10 -14 5 3 7 12 3 20 -7 21 -13 19 -13 -6z"/>
<path d="M871 2564 c0 -11 3 -14 6 -6 3 7 2 16 -1 19 -3 4 -6 -2 -5 -13z"/>
<path d="M455 2540 c3 -5 -3 -15 -14 -22 -20 -12 -20 -12 0 -26 11 -8 23 -11
27 -7 4 4 1 10 -5 12 -9 3 -8 11 3 29 15 22 15 24 0 24 -10 0 -14 -4 -11 -10z"/>
<path d="M851 2543 c0 -4 4 -17 9 -28 8 -19 9 -19 9 2 1 12 -3 25 -9 28 -5 3
-10 3 -9 -2z"/>
<path d="M135 2529 c-4 -6 -5 -12 -2 -15 2 -3 7 2 10 11 7 17 1 20 -8 4z"/>
<path d="M963 2483 c-1 -37 4 -61 13 -71 12 -12 13 -6 8 45 -9 81 -20 94 -21
26z"/>
<path d="M155 2520 c-3 -5 -1 -10 4 -10 6 0 11 5 11 10 0 6 -2 10 -4 10 -3 0
-8 -4 -11 -10z"/>
<path d="M295 2515 c-25 -12 -26 -14 -5 -9 14 4 29 10 35 15 12 12 5 11 -30
-6z"/>
<path d="M695 2494 c-4 -22 -9 -47 -12 -56 -2 -10 0 -18 5 -18 10 0 27 99 18
107 -3 3 -8 -12 -11 -33z"/>
<path d="M160 2465 c0 -8 4 -15 10 -15 5 0 7 7 4 15 -4 8 -8 15 -10 15 -2 0
-4 -7 -4 -15z"/>
<path d="M313 2466 c1 -6 -6 -10 -15 -10 -10 1 -15 -2 -13 -6 3 -5 14 -8 25
-7 10 1 17 4 14 8 -2 4 4 9 13 11 15 3 14 5 -4 10 -14 4 -22 2 -20 -6z"/>
<path d="M662 2455 c0 -16 2 -22 5 -12 2 9 2 23 0 30 -3 6 -5 -1 -5 -18z"/>
<path d="M111 2448 c-1 -10 4 -18 10 -18 5 0 7 -4 4 -10 -3 -5 2 -10 12 -10
17 -1 17 -1 0 -11 -10 -6 -25 -8 -33 -5 -8 3 -14 1 -14 -3 0 -17 33 -21 60 -7
18 9 32 10 38 4 6 -6 12 -6 16 1 4 6 1 11 -7 11 -8 0 -22 12 -32 26 -9 14 -23
23 -30 20 -8 -3 -16 0 -19 7 -2 7 -5 4 -5 -5z"/>
<path d="M385 2436 c-19 -8 -25 -15 -17 -20 7 -4 12 -2 12 3 0 6 6 11 14 11 8
0 18 5 21 10 8 12 7 12 -30 -4z"/>
<path d="M1072 2425 c0 -16 2 -22 5 -12 2 9 2 23 0 30 -3 6 -5 -1 -5 -18z"/>
<path d="M25 2420 c-3 -5 -1 -10 4 -10 6 0 11 5 11 10 0 6 -2 10 -4 10 -3 0
-8 -4 -11 -10z"/>
<path d="M183 2422 c4 -6 20 -13 35 -17 20 -4 30 -15 38 -40 9 -28 8 -35 -2
-35 -8 0 -14 -6 -14 -14 0 -8 -6 -17 -12 -19 -7 -3 1 -6 17 -6 22 -1 26 2 15
9 -8 5 -11 12 -7 16 4 4 13 2 19 -4 7 -7 19 -12 27 -12 11 0 10 4 -5 14 -16
13 -17 18 -6 35 24 40 10 58 -53 66 -11 1 -29 6 -39 10 -13 6 -17 5 -13 -3z
m105 -51 c3 -8 -1 -12 -9 -9 -7 2 -15 10 -17 17 -3 8 1 12 9 9 7 -2 15 -10 17
-17z"/>
<path d="M310 2409 c0 -5 4 -7 10 -4 6 4 7 -1 3 -11 -5 -14 -3 -16 11 -11 10
4 20 7 23 7 2 0 -2 7 -11 15 -17 17 -36 20 -36 4z"/>
<path d="M393 2396 c-10 -11 -9 -15 1 -19 8 -3 16 3 19 14 6 22 -3 24 -20 5z"/>
<path d="M1024 2385 c-3 -13 -4 -30 -1 -37 3 -7 6 -2 6 12 1 18 4 21 10 12 6
-11 9 -9 14 7 3 12 -1 22 -9 25 -9 3 -16 -4 -20 -19z"/>
<path d="M682 2375 c0 -16 2 -22 5 -12 2 9 2 23 0 30 -3 6 -5 -1 -5 -18z"/>
<path d="M60 2380 c0 -5 6 -10 13 -10 9 0 8 -3 -2 -9 -8 -5 -10 -14 -6 -22 6
-9 10 -8 15 7 4 10 5 25 3 32 -6 14 -23 16 -23 2z"/>
<path d="M991 2349 c-1 -25 2 -49 7 -53 4 -4 7 -13 7 -18 0 -6 6 -13 13 -15
14 -5 16 20 3 45 -5 9 -14 33 -19 52 l-10 35 -1 -46z"/>
<path d="M431 2358 c-1 -15 -5 -38 -11 -53 -6 -16 -6 -24 0 -20 12 7 24 69 17
87 -3 7 -6 1 -6 -14z"/>
<path d="M2 2345 c0 -16 2 -22 5 -12 2 9 2 23 0 30 -3 6 -5 -1 -5 -18z"/>
<path d="M360 2360 c13 -8 12 -11 -5 -25 -11 -9 -14 -14 -8 -10 7 3 23 1 35
-5 21 -10 22 -10 5 4 -18 14 -17 15 5 22 22 7 22 7 3 15 -11 4 -27 8 -35 8
-13 1 -13 0 0 -9z"/>
<path d="M235 2350 c-3 -5 -1 -10 4 -10 6 0 11 5 11 10 0 6 -2 10 -4 10 -3 0
-8 -4 -11 -10z"/>
<path d="M1041 2334 c0 -11 3 -14 6 -6 3 7 2 16 -1 19 -3 4 -6 -2 -5 -13z"/>
<path d="M308 2333 c7 -3 16 -2 19 1 4 3 -2 6 -13 5 -11 0 -14 -3 -6 -6z"/>
<path d="M1320 2327 c0 -8 7 -20 15 -27 13 -11 12 -16 -6 -41 -17 -24 -18 -33
-9 -44 7 -8 20 -15 29 -15 9 0 21 -4 27 -9 12 -13 156 -52 163 -45 11 11 -17
37 -58 53 -23 10 -46 23 -50 29 -4 7 -22 23 -41 37 -19 14 -28 25 -21 25 13 0
5 10 -32 39 -14 11 -17 11 -17 -2z"/>
<path d="M20 2320 c0 -5 5 -10 10 -10 6 0 10 5 10 10 0 6 -4 10 -10 10 -5 0
-10 -4 -10 -10z"/>
<path d="M1042 2248 c3 -53 105 -122 145 -99 17 10 17 10 0 11 -10 0 -26 7
-35 16 -15 15 -13 16 18 9 32 -7 33 -6 17 9 -9 9 -32 18 -51 20 -24 1 -42 11
-56 29 -26 33 -39 34 -38 5z"/>
<path d="M410 2239 c0 -11 5 -17 10 -14 6 3 10 13 10 21 0 8 -4 14 -10 14 -5
0 -10 -9 -10 -21z"/>
<path d="M1449 2239 c-10 -6 -8 -9 8 -9 12 0 25 -4 28 -10 3 -5 13 -10 22 -10
12 0 13 3 4 14 -15 18 -46 26 -62 15z"/>
<path d="M361 2210 c-32 -16 -33 -18 -13 -24 12 -4 30 -3 39 3 14 8 15 10 3
11 -13 0 -13 1 0 10 28 17 5 18 -29 0z"/>
<path d="M1555 2170 c3 -5 10 -10 16 -10 5 0 9 5 9 10 0 6 -7 10 -16 10 -8 0
-12 -4 -9 -10z"/>
<path d="M1398 2123 c7 -3 16 -2 19 1 4 3 -2 6 -13 5 -11 0 -14 -3 -6 -6z"/>
<path d="M1450 2110 c14 -4 32 -8 40 -9 13 -1 13 0 0 9 -8 5 -26 9 -40 9 l-25
-1 25 -8z"/>
<path d="M1518 2093 c7 -3 16 -2 19 1 4 3 -2 6 -13 5 -11 0 -14 -3 -6 -6z"/>
<path d="M395 2080 c-3 -5 -1 -10 4 -10 6 0 11 5 11 10 0 6 -2 10 -4 10 -3 0
-8 -4 -11 -10z"/>
<path d="M1365 2073 c-69 -8 -75 -12 -75 -44 0 -32 11 -48 48 -68 25 -13 42
-7 42 14 0 9 6 12 15 9 15 -6 19 0 29 49 5 20 3 27 -9 27 -9 0 -13 5 -10 10 3
6 3 9 -2 9 -4 -1 -21 -4 -38 -6z"/>
<path d="M990 2065 c0 -2 17 -9 38 -14 l37 -10 2 -69 c1 -70 17 -116 49 -142
9 -8 4 3 -11 25 -25 37 -27 46 -23 118 3 52 1 80 -6 82 -22 6 -86 14 -86 10z"/>
<path d="M1230 2025 c-8 -9 -8 -15 -2 -15 12 0 26 19 19 26 -2 2 -10 -2 -17
-11z"/>
<path d="M1689 1978 c12 -31 4 -91 -16 -132 -8 -15 -10 -25 -4 -22 6 4 11 2
11 -5 0 -17 28 9 46 43 13 25 13 30 -1 44 -8 8 -15 25 -15 38 0 12 -7 31 -15
42 -14 18 -15 17 -6 -8z"/>
<path d="M15 1960 c3 -5 10 -10 16 -10 5 0 9 5 9 10 0 6 -7 10 -16 10 -8 0
-12 -4 -9 -10z"/>
<path d="M1950 1899 c0 -5 -8 -9 -17 -7 -27 4 -43 -10 -43 -37 0 -13 -5 -27
-12 -31 -8 -5 -9 -2 -4 11 8 21 -1 55 -15 55 -18 0 9 -105 31 -120 4 -3 16
-25 27 -50 l20 -45 -5 71 c-4 67 1 91 35 157 2 4 -1 7 -6 7 -6 0 -11 -5 -11
-11z"/>
<path d="M2290 1886 c0 -13 -7 -43 -15 -67 -15 -41 -13 -93 4 -103 4 -3 20 8
37 23 20 19 40 28 62 27 19 -1 32 4 32 12 0 6 -7 12 -15 12 -14 0 -21 30 -16
69 2 8 -2 10 -10 5 -9 -5 -10 -2 -6 9 7 19 -20 31 -49 21 -16 -5 -16 -4 -4 5
13 9 13 11 -2 11 -12 0 -18 -8 -18 -24z"/>
<path d="M2076 1881 c-3 -5 0 -11 8 -14 15 -6 26 1 26 15 0 11 -27 10 -34 -1z"/>
<path d="M1208 1773 c7 -3 16 -2 19 1 4 3 -2 6 -13 5 -11 0 -14 -3 -6 -6z"/>
<path d="M1468 1723 c7 -3 16 -2 19 1 4 3 -2 6 -13 5 -11 0 -14 -3 -6 -6z"/>
<path d="M2035 1610 c27 -12 43 -12 25 0 -8 5 -22 9 -30 9 -10 0 -8 -3 5 -9z"/>
<path d="M2100 1590 c14 -4 36 -8 50 -8 22 0 22 1 -5 8 -16 4 -39 8 -50 8 -16
0 -15 -2 5 -8z"/>
<path d="M1546 1435 c-4 -11 4 -14 37 -13 23 1 53 -2 67 -6 19 -5 21 -5 10 3
-13 10 -13 11 0 11 13 0 13 1 0 10 -24 16 -107 12 -114 -5z"/>
<path d="M1820 1390 l-25 -20 28 0 c32 0 67 16 67 30 0 17 -44 10 -70 -10z"/>
<path d="M1315 1191 c-3 -6 7 -13 22 -16 86 -17 130 -27 148 -34 73 -30 152
-45 258 -48 73 -3 117 -1 117 5 0 13 -73 26 -100 17 -14 -4 -20 -2 -18 7 2 10
-14 14 -62 15 -116 4 -164 9 -195 22 -16 7 -52 17 -80 22 -27 5 -57 12 -67 15
-9 2 -19 0 -23 -5z"/>
<path d="M990 1140 c0 -5 5 -10 10 -10 6 0 10 5 10 10 0 6 -4 10 -10 10 -5 0
-10 -4 -10 -10z"/>
<path d="M956 510 c12 -47 72 -165 93 -184 11 -11 21 -17 21 -14 0 10 -58 121
-67 127 -4 3 -18 26 -31 51 -12 25 -19 34 -16 20z"/>
<path d="M1277 333 c-3 -5 -1 -17 4 -28 6 -17 8 -17 8 -2 1 10 9 17 21 17 11
0 20 5 20 10 0 12 -47 14 -53 3z"/>
<path d="M1270 267 c0 -14 -5 -17 -22 -13 -13 3 -17 3 -10 0 16 -8 15 -34 -1
-34 -8 0 -19 10 -25 23 -6 12 -11 16 -11 9 -1 -7 -6 -10 -13 -6 -7 4 -8 3 -4
-5 4 -6 2 -18 -4 -26 -18 -21 15 -50 57 -50 33 0 44 9 21 18 -8 4 -7 6 4 6 9
1 19 -5 21 -11 3 -7 6 -1 6 13 1 15 8 29 16 33 8 3 15 15 15 27 0 16 -4 19
-17 15 -9 -4 -20 -1 -25 6 -5 10 -8 8 -8 -5z m-70 -68 c0 -6 7 -8 16 -5 14 5
15 4 4 -9 -7 -9 -13 -14 -14 -13 -1 2 -8 11 -15 21 -9 11 -10 17 -2 17 6 0 11
-5 11 -11z"/>
<path d="M1225 150 c-4 -6 6 -10 22 -10 22 0 25 2 13 10 -19 12 -27 12 -35 0z"/>
</g>
</svg>
